# xmcd
#
# Track frame offsets: 
#        150
#        51813
#        109101
#        141435
#
# Disc length: 2991 seconds
#
# Revision: 0
# Processed by: cddbd v1.5.2PL0 Copyright (c) Steve Scherf et al.
# Submitted via: ExactAudioCopy v0.95b4
#
DISCID=350bad04
DTITLE=Jandek - Manhattan Tuesday [CD2]
DYEAR=2007
DGENRE=Blues
TTITLE0=Afternoon of Insensitivity: Part Four
TTITLE1=Afternoon of Insensitivity: Part Five
TTITLE2=Afternoon of Insensitivity: Part Six
TTITLE3=Afternoon of Insensitivity: Part Seven
EXTD=
EXTT0=
EXTT1=
EXTT2=
EXTT3=
PLAYORDER=
